<svg xmlns="http://www.w3.org/2000/svg" width="24" height="24" viewBox="0 0 24 24">
 <g fill="none" transform="matrix(0.9999929666519164, 0.00370400003157556, -0.00370400003157556, 0.9999929666519164, 29.490911483764645, -7.770881175994873)">
    <path fill="#434343" d="M -19.259 17.087 L -15.369 20.977 L -16.077 21.683 L -19.966 17.794 L -19.259 17.087 Z"/>
  </g>
  <path d="M 0.917 23.974 L 0.916 21.168 L 23.786 21.168 L 23.787 23.974 L 0.917 23.974 Z M 16.45 11.006 L 12.375 7.083 L 7.015 12.141 L 11.06 16.132 L 16.45 11.006 Z M 13.182 6.408 L 17.176 10.266 L 22.658 5.051 L 18.583 1.35 L 13.182 6.408 Z M 11.581 5.837 L 17.755 11.693 L 12.352 16.843 C 11.895 17.278 11.357 17.494 10.738 17.494 C 10.118 17.494 9.58 17.278 9.122 16.843 L 6.405 18.799 L 0.688 18.799 L 6.235 14.079 C 5.778 13.645 5.541 13.125 5.52 12.519 C 5.501 11.915 5.721 11.395 6.179 10.961 L 11.581 5.837 Z M 11.581 5.837 L 16.927 0.768 C 17.383 0.334 17.922 0.118 18.542 0.118 C 19.161 0.118 19.7 0.334 20.157 0.768 L 23.129 3.559 C 23.586 3.994 23.816 4.504 23.816 5.092 C 23.816 5.679 23.586 6.189 23.129 6.623 L 17.755 11.693 L 11.581 5.837 Z" style="fill: rgb(67, 67, 67); transform-origin: 12.252px 12.047px;" transform="matrix(0.99999499321, 0.003291000146, -0.003291000146, 0.99999499321, -3.427e-9, -2.505e-9)"/>

</svg>